<?xml version="1.0" encoding="utf-8"?>
<!-- Generator: Adobe Illustrator 26.0.0, SVG Export Plug-In . SVG Version: 6.00 Build 0)  -->
<svg version="1.1" id="Layer_1" xmlns="http://www.w3.org/2000/svg" xmlns:xlink="http://www.w3.org/1999/xlink" x="0px" y="0px"
	 viewBox="0 0 500 500" style="enable-background:new 0 0 500 500;" xml:space="preserve">
<style type="text/css">
	.st0{fill:none;stroke:#134767;stroke-width:5;stroke-linecap:square;stroke-miterlimit:10;}
	.st1{fill:none;stroke:#134767;stroke-width:4.9611;stroke-miterlimit:10;}
	.st2{fill:none;stroke:#134767;stroke-width:4.9961;stroke-miterlimit:10;}
	.st3{fill:none;stroke:#134767;stroke-width:5.031;stroke-linecap:square;stroke-miterlimit:10;}
	.st4{fill:none;stroke:#134767;stroke-width:5.031;stroke-linecap:round;stroke-miterlimit:10;}
	.st5{fill:none;stroke:#6D6E71;stroke-width:4.8335;stroke-miterlimit:10;}
	.st6{fill:none;stroke:#134767;stroke-width:5.0633;stroke-linecap:square;stroke-miterlimit:10;}
	.st7{fill:none;stroke:#134767;stroke-width:5.2377;stroke-linecap:round;stroke-miterlimit:10;}
	.st8{fill:none;stroke:#134767;stroke-width:5.0633;stroke-miterlimit:10;}
	.st9{fill:none;stroke:#134767;stroke-width:4.9326;stroke-linecap:square;stroke-miterlimit:10;}
	.st10{fill:none;stroke:#134767;stroke-width:4.9326;stroke-miterlimit:10;}
	.st11{fill:none;stroke:#134767;stroke-width:4.9326;stroke-linecap:round;stroke-miterlimit:10;}
	.st12{fill:none;stroke:#134767;stroke-width:5;stroke-linecap:round;stroke-miterlimit:10;}
	.st13{fill:none;stroke:#134767;stroke-width:5.552;stroke-linecap:square;stroke-miterlimit:10;}
	.st14{fill:none;stroke:#134767;stroke-width:5;stroke-linecap:round;stroke-linejoin:round;stroke-miterlimit:10;}
</style>
<line class="st0" x1="-850" y1="229.15" x2="-850" y2="402.84"/>
<g>
	<path class="st1" d="M-2420.21,197.04c0,38.85-42.99,70.34-96.02,70.34s-96.02-31.49-96.02-70.34s42.99-101.21,96.02-101.21
		S-2420.21,158.19-2420.21,197.04z"/>
	<path class="st2" d="M-2609.74,176.74l-11.51-7.91c-18.4-12.65-22.92-37.6-10.09-55.74l0,0c12.83-18.14,38.15-22.59,56.56-9.94
		l11.51,7.91"/>
	<path class="st2" d="M-2423.4,176.74l11.51-7.91c18.4-12.65,22.92-37.6,10.09-55.74l0,0c-12.83-18.14-38.15-22.59-56.56-9.94
		l-11.51,7.91"/>
	<line class="st3" x1="-2516.62" y1="271.74" x2="-2516.62" y2="399.71"/>
	<line class="st4" x1="-2625.57" y1="404.14" x2="-2393.64" y2="404.14"/>
</g>
<g>
	<path class="st5" d="M-2064.73,277.06"/>
	<line class="st6" x1="-1957.41" y1="268.8" x2="-1957.41" y2="396.48"/>
	<line class="st7" x1="-2072.5" y1="401.04" x2="-1827.5" y2="401.04"/>
	<polygon class="st8" points="-2018.91,98.87 -1897.54,98.87 -1855.19,265.9 -2059.64,265.9 	"/>
</g>
<g>
	<path class="st9" d="M-1375.57,396.23l3.66-191.04c-50.01-81.71-50.01-81.71-50.01-81.71"/>
	<path class="st9" d="M-1422.74,119.93c-0.26,0.79-0.58,1.57-0.93,2.37c-1.71,3.75-4.53,7.57-8.35,10.88l-20.64-21.75
		c9.82-8.51,22.41-10.55,28.09-4.55C-1421.55,110.05-1421.07,114.85-1422.74,119.93z"/>
	<g>
		<polygon class="st10" points="-1424.49,147.06 -1467.43,212.4 -1534.03,139.27 -1464.02,103.65 -1453.48,115.22 -1434.67,135.88 
					"/>
	</g>
	<path class="st9" d="M-1482.64,198.88c-12.24,11.48-31.59,10.43-43.22-2.36c-11.63-12.79-11.13-32.47,1.12-43.95"/>
	<line class="st11" x1="-1488.57" y1="401.07" x2="-1260.61" y2="401.07"/>
</g>
<line class="st12" x1="-959.48" y1="402.84" x2="-740.52" y2="402.84"/>
<g>
	<path class="st13" d="M-843.33,233.95c-1.54,0.12-3.1,0.21-4.67,0.21c-1.58,0-3.14-0.09-4.68-0.21H-843.33z"/>
	<path class="st13" d="M-785.97,167.94c0,24.06-12.02,45.11-30,56.7h-64.08c-17.98-11.59-30-32.65-30-56.7
		c0-36.57,27.77-66.2,62.04-66.2C-813.74,101.73-785.97,131.37-785.97,167.94z"/>
	<rect x="-889.54" y="224.64" class="st13" width="79.99" height="9.3"/>
</g>
<line class="st12" x1="-420.53" y1="102.1" x2="-180.17" y2="102.1"/>
<g>
	<line class="st12" x1="129.33" y1="103.89" x2="369.69" y2="103.89"/>
	<rect x="171.01" y="309.67" class="st14" width="14.82" height="9.84"/>
	<line class="st0" x1="178.42" y1="309.67" x2="178.42" y2="106.63"/>
	<path class="st14" d="M238.13,378.76c0-32.77-26.73-59.34-59.71-59.34s-59.71,26.57-59.71,59.34H238.13z"/>
	<path class="st14" d="M195.62,378.91c0,9.5-7.7,17.2-17.2,17.2s-17.2-7.7-17.2-17.2"/>
	<line class="st0" x1="321.58" y1="208.15" x2="321.58" y2="106.8"/>
	<g>
		<rect x="314.17" y="212.34" class="st14" width="14.82" height="9.84"/>
		<path class="st14" d="M381.3,338.52c0-63.62-26.73-115.19-59.71-115.19s-59.71,51.57-59.71,115.19H381.3z"/>
	</g>
</g>
<ellipse class="st0" cx="-408.84" cy="290.46" rx="6.4" ry="6.42"/>
<ellipse class="st0" cx="-391.58" cy="291.46" rx="6.4" ry="6.42"/>
<g>
	<rect x="-340.99" y="186.86" class="st0" width="81.49" height="8.95"/>
	<line class="st0" x1="-300.25" y1="186.86" x2="-300.25" y2="101.91"/>
	<g>
		<path class="st0" d="M-210.72,284.15c0-46.43-37.51-84.07-83.79-84.07s-83.79,37.64-83.79,84.07"/>
		<path class="st0" d="M-192.46,284.15c0-46.43-37.51-84.07-83.79-84.07s-83.79,37.64-83.79,84.07"/>
		<path class="st0" d="M-242.96,284.15c0-46.43-37.51-84.07-83.79-84.07s-83.79,37.64-83.79,84.07"/>
		<path class="st0" d="M-224.7,284.15c0-46.43-37.51-84.07-83.79-84.07s-83.79,37.64-83.79,84.07"/>
	</g>
	<ellipse class="st0" cx="-190.46" cy="290.75" rx="6.4" ry="6.42"/>
	<ellipse class="st0" cx="-207.72" cy="289.85" rx="6.4" ry="6.42"/>
	<ellipse class="st0" cx="-377.2" cy="289.85" rx="6.4" ry="6.42"/>
	<ellipse class="st0" cx="-224.7" cy="290.25" rx="6.4" ry="6.42"/>
	<ellipse class="st0" cx="-242.96" cy="291.25" rx="6.4" ry="6.42"/>
	<ellipse class="st0" cx="-360.04" cy="290.25" rx="6.4" ry="6.42"/>
	<line class="st0" x1="-301.5" y1="206.46" x2="-301.5" y2="306.89"/>
	<g>
		<g>
			<path class="st0" d="M-210.22,384.58c0-46.43-37.51-84.07-83.79-84.07s-83.79,37.64-83.79,84.07"/>
			<path class="st0" d="M-191.96,384.58c0-46.43-37.51-84.07-83.79-84.07s-83.79,37.64-83.79,84.07"/>
			<path class="st0" d="M-242.46,384.58c0-46.43-37.51-84.07-83.79-84.07s-83.79,37.64-83.79,84.07"/>
			<path class="st0" d="M-224.2,384.58c0-46.43-37.51-84.07-83.79-84.07s-83.79,37.64-83.79,84.07"/>
		</g>
		<ellipse class="st0" cx="-410.04" cy="390.18" rx="6.4" ry="6.42"/>
		<ellipse class="st0" cx="-189.96" cy="391.18" rx="6.4" ry="6.42"/>
		<ellipse class="st0" cx="-392.78" cy="391.18" rx="6.4" ry="6.42"/>
		<ellipse class="st0" cx="-207.22" cy="390.28" rx="6.4" ry="6.42"/>
		<ellipse class="st0" cx="-376.7" cy="390.28" rx="6.4" ry="6.42"/>
		<ellipse class="st0" cx="-224.2" cy="390.68" rx="6.4" ry="6.42"/>
		<ellipse class="st0" cx="-242.46" cy="391.68" rx="6.4" ry="6.42"/>
		<ellipse class="st0" cx="-359.54" cy="390.68" rx="6.4" ry="6.42"/>
		<ellipse class="st0" cx="-301.35" cy="358.93" rx="18.33" ry="18.39"/>
		<line class="st0" x1="-301" y1="306.89" x2="-301" y2="336.13"/>
	</g>
</g>
</svg>
