<?xml version="1.0" encoding="utf-8"?>
<!-- Generator: Adobe Illustrator 26.0.0, SVG Export Plug-In . SVG Version: 6.00 Build 0)  -->
<svg version="1.1" id="Layer_1" xmlns="http://www.w3.org/2000/svg" xmlns:xlink="http://www.w3.org/1999/xlink" x="0px" y="0px"
	 viewBox="0 0 500 500" style="enable-background:new 0 0 500 500;" xml:space="preserve">
<style type="text/css">
	.st0{fill:none;stroke:#134767;stroke-width:5;stroke-linecap:square;stroke-miterlimit:10;}
	.st1{fill:none;stroke:#134767;stroke-width:4.9611;stroke-miterlimit:10;}
	.st2{fill:none;stroke:#134767;stroke-width:4.9961;stroke-miterlimit:10;}
	.st3{fill:none;stroke:#134767;stroke-width:5.031;stroke-linecap:square;stroke-miterlimit:10;}
	.st4{fill:none;stroke:#134767;stroke-width:5.031;stroke-linecap:round;stroke-miterlimit:10;}
	.st5{fill:none;stroke:#6D6E71;stroke-width:4.8335;stroke-miterlimit:10;}
	.st6{fill:none;stroke:#134767;stroke-width:5.0633;stroke-linecap:square;stroke-miterlimit:10;}
	.st7{fill:none;stroke:#134767;stroke-width:5.2377;stroke-linecap:round;stroke-miterlimit:10;}
	.st8{fill:none;stroke:#134767;stroke-width:5.0633;stroke-miterlimit:10;}
	.st9{fill:none;stroke:#134767;stroke-width:4.9326;stroke-linecap:square;stroke-miterlimit:10;}
	.st10{fill:none;stroke:#134767;stroke-width:4.9326;stroke-miterlimit:10;}
	.st11{fill:none;stroke:#134767;stroke-width:4.9326;stroke-linecap:round;stroke-miterlimit:10;}
	.st12{fill:none;stroke:#134767;stroke-width:5;stroke-linecap:round;stroke-miterlimit:10;}
	.st13{fill:none;stroke:#134767;stroke-width:5.552;stroke-linecap:square;stroke-miterlimit:10;}
	.st14{fill:none;stroke:#134767;stroke-width:5;stroke-linecap:round;stroke-linejoin:round;stroke-miterlimit:10;}
	.st15{fill:none;stroke:#134767;stroke-width:5.274;stroke-linecap:square;stroke-miterlimit:10;}
	.st16{fill:none;stroke:#134767;stroke-width:4.072;stroke-linecap:square;stroke-miterlimit:10;}
</style>
<line class="st0" x1="-300" y1="229.15" x2="-300" y2="402.84"/>
<g>
	<path class="st1" d="M-1870.21,197.04c0,38.85-42.99,70.34-96.02,70.34s-96.02-31.49-96.02-70.34s42.99-101.21,96.02-101.21
		S-1870.21,158.19-1870.21,197.04z"/>
	<path class="st2" d="M-2059.74,176.74l-11.51-7.91c-18.4-12.65-22.92-37.6-10.09-55.74l0,0c12.83-18.14,38.15-22.59,56.56-9.94
		l11.51,7.91"/>
	<path class="st2" d="M-1873.4,176.74l11.51-7.91c18.4-12.65,22.92-37.6,10.09-55.74v0c-12.83-18.14-38.15-22.59-56.56-9.94
		l-11.51,7.91"/>
	<line class="st3" x1="-1966.62" y1="271.74" x2="-1966.62" y2="399.71"/>
	<line class="st4" x1="-2075.57" y1="404.14" x2="-1843.64" y2="404.14"/>
</g>
<g>
	<path class="st5" d="M-1514.73,277.06"/>
	<line class="st6" x1="-1407.41" y1="268.8" x2="-1407.41" y2="396.48"/>
	<line class="st7" x1="-1522.5" y1="401.04" x2="-1277.5" y2="401.04"/>
	<polygon class="st8" points="-1468.91,98.87 -1347.54,98.87 -1305.19,265.9 -1509.64,265.9 	"/>
</g>
<g>
	<path class="st9" d="M-825.57,396.23l3.66-191.04c-50.01-81.71-50.01-81.71-50.01-81.71"/>
	<path class="st9" d="M-872.74,119.93c-0.26,0.79-0.58,1.57-0.93,2.37c-1.71,3.75-4.53,7.57-8.35,10.88l-20.64-21.75
		c9.82-8.51,22.41-10.55,28.09-4.55C-871.55,110.05-871.07,114.85-872.74,119.93z"/>
	<g>
		<polygon class="st10" points="-874.49,147.06 -917.43,212.4 -984.03,139.27 -914.02,103.65 -903.48,115.22 -884.67,135.88 		"/>
	</g>
	<path class="st9" d="M-932.64,198.88c-12.24,11.48-31.59,10.43-43.22-2.36c-11.63-12.79-11.13-32.47,1.12-43.95"/>
	<line class="st11" x1="-938.57" y1="401.07" x2="-710.61" y2="401.07"/>
</g>
<line class="st12" x1="-409.48" y1="402.84" x2="-190.52" y2="402.84"/>
<g>
	<path class="st13" d="M-293.33,233.95c-1.54,0.12-3.1,0.21-4.67,0.21c-1.58,0-3.14-0.09-4.68-0.21H-293.33z"/>
	<path class="st13" d="M-235.97,167.94c0,24.06-12.02,45.11-30,56.7h-64.08c-17.98-11.59-30-32.65-30-56.7
		c0-36.57,27.77-66.2,62.04-66.2C-263.74,101.73-235.97,131.37-235.97,167.94z"/>
	<rect x="-339.54" y="224.64" class="st13" width="79.99" height="9.3"/>
</g>
<g>
	<line class="st12" x1="679.33" y1="103.89" x2="919.69" y2="103.89"/>
	<rect x="721.01" y="309.67" class="st14" width="14.82" height="9.84"/>
	<line class="st0" x1="728.42" y1="309.67" x2="728.42" y2="106.63"/>
	<path class="st14" d="M788.13,378.76c0-32.77-26.73-59.34-59.71-59.34s-59.71,26.57-59.71,59.34H788.13z"/>
	<path class="st14" d="M745.62,378.91c0,9.5-7.7,17.2-17.2,17.2s-17.2-7.7-17.2-17.2"/>
	<line class="st0" x1="871.58" y1="208.15" x2="871.58" y2="106.8"/>
	<g>
		<rect x="864.17" y="212.34" class="st14" width="14.82" height="9.84"/>
		<path class="st14" d="M931.3,338.52c0-63.62-26.73-115.19-59.71-115.19s-59.71,51.57-59.71,115.19H931.3z"/>
	</g>
</g>
<g>
	<line class="st12" x1="129.82" y1="102.1" x2="370.18" y2="102.1"/>
	<line class="st0" x1="250.1" y1="161.4" x2="250.1" y2="101.91"/>
	<ellipse class="st15" cx="138.91" cy="279.44" rx="6.4" ry="7.14"/>
	<ellipse class="st15" cx="156.17" cy="280.55" rx="6.4" ry="7.14"/>
	<rect x="208.76" y="164.18" class="st15" width="81.49" height="9.96"/>
	<g>
		<path class="st15" d="M339.03,272.42c0-51.66-37.51-93.54-83.79-93.54s-83.79,41.88-83.79,93.54"/>
		<path class="st15" d="M357.29,272.42c0-51.66-37.51-93.54-83.79-93.54s-83.79,41.88-83.79,93.54"/>
		<path class="st15" d="M306.79,272.42c0-51.66-37.51-93.54-83.79-93.54s-83.79,41.88-83.79,93.54"/>
		<path class="st15" d="M325.05,272.42c0-51.66-37.51-93.54-83.79-93.54s-83.79,41.88-83.79,93.54"/>
	</g>
	<ellipse class="st15" cx="359.29" cy="281.76" rx="6.4" ry="7.14"/>
	<ellipse class="st15" cx="342.03" cy="280.76" rx="6.4" ry="7.14"/>
	<ellipse class="st15" cx="172.55" cy="280.76" rx="6.4" ry="7.14"/>
	<ellipse class="st15" cx="324.05" cy="280.21" rx="6.4" ry="7.14"/>
	<ellipse class="st15" cx="306.79" cy="280.32" rx="6.4" ry="7.14"/>
	<ellipse class="st15" cx="189.71" cy="280.21" rx="6.4" ry="7.14"/>
	<line class="st15" x1="248.25" y1="185.99" x2="248.25" y2="297.73"/>
	<g>
		<g>
			<path class="st0" d="M340.13,384.58c0-46.43-37.51-84.07-83.79-84.07s-83.79,37.64-83.79,84.07"/>
			<path class="st0" d="M190.81,384.58c0-0.11,0-0.21,0-0.32c0.14-37.46,24.7-69.15,58.54-79.86c2.97-0.95,6.02-1.73,9.13-2.33
				c2.3-0.45,4.63-0.81,6.99-1.06"/>
			<path class="st0" d="M233.23,301.01c2.36,0.25,4.69,0.61,6.99,1.06c3.11,0.6,6.16,1.38,9.13,2.33
				c33.94,10.74,58.54,42.58,58.54,80.18"/>
			<path class="st0" d="M326.15,384.58c0-46.43-37.51-84.07-83.79-84.07s-83.79,37.64-83.79,84.07"/>
		</g>
		<ellipse class="st0" cx="155.57" cy="391.18" rx="6.4" ry="6.42"/>
		<ellipse class="st0" cx="343.13" cy="391.28" rx="6.4" ry="6.42"/>
		<ellipse class="st0" cx="172.65" cy="391.28" rx="6.4" ry="6.42"/>
		<ellipse class="st0" cx="326.15" cy="391.68" rx="6.4" ry="6.42"/>
		<ellipse class="st0" cx="307.89" cy="391.68" rx="6.4" ry="6.42"/>
		<ellipse class="st0" cx="190.81" cy="391" rx="6.4" ry="6.42"/>
		<ellipse class="st16" cx="249.35" cy="354.27" rx="14.93" ry="14.98"/>
		<line class="st0" x1="249.35" y1="306.89" x2="249.35" y2="336.13"/>
	</g>
</g>
</svg>
