<?xml version="1.0" encoding="utf-8"?>
<!-- Generator: Adobe Illustrator 26.0.0, SVG Export Plug-In . SVG Version: 6.00 Build 0)  -->
<svg version="1.1" id="Layer_1" xmlns="http://www.w3.org/2000/svg" xmlns:xlink="http://www.w3.org/1999/xlink" x="0px" y="0px"
	 viewBox="0 0 500 500" style="enable-background:new 0 0 500 500;" xml:space="preserve">
<style type="text/css">
	.st0{fill:#101111;}
	.st1{fill:#E9C369;}
</style>
<path class="st0" d="M470,500H30c-16.57,0-30-13.43-30-30V30C0,13.43,13.43,0,30,0h440c16.57,0,30,13.43,30,30v440
	C500,486.57,486.57,500,470,500z"/>
<path id="lamp" class="st1" d="M309.52,144.96c17.81,10.54,32.69,25.49,43.26,43.47c10.84,18.23,16.48,39.17,16.28,60.47
	c0.49,32.18-12.13,63.13-34.88,85.52c-22.03,23.12-52.5,35.95-84.17,35.44c-31.67,0.49-62.12-12.33-84.17-35.44
	c-22.75-22.38-35.39-53.32-34.9-85.5c-0.4-43.11,22.44-83,59.53-103.94V47.63h119.05V144.96z M397.53,232.46h54v35.08h-54V232.46z
	 M50.39,232.46h54v35.08h-54V232.46z M232.46,451.15v-54h35.08v54H232.46z M366.02,339.2l41.79,34.19l-22.21,27.15l-41.79-34.19
	L366.02,339.2z M157.1,366.35l-41.79,34.19L93.1,373.39l41.79-34.19L157.1,366.35z"/>
</svg>
