<?xml version="1.0" encoding="utf-8"?>
<!-- Generator: Adobe Illustrator 26.0.0, SVG Export Plug-In . SVG Version: 6.00 Build 0)  -->
<svg version="1.1" id="Layer_1" xmlns="http://www.w3.org/2000/svg" xmlns:xlink="http://www.w3.org/1999/xlink" x="0px" y="0px"
	 viewBox="0 0 500 500" style="enable-background:new 0 0 500 500;" xml:space="preserve">
<style type="text/css">
	.st0{fill:none;stroke:#134767;stroke-width:5;stroke-linecap:square;stroke-miterlimit:10;}
	.st1{fill:none;stroke:#134767;stroke-width:4.9611;stroke-miterlimit:10;}
	.st2{fill:none;stroke:#134767;stroke-width:4.9961;stroke-miterlimit:10;}
	.st3{fill:none;stroke:#134767;stroke-width:5.031;stroke-linecap:square;stroke-miterlimit:10;}
	.st4{fill:none;stroke:#134767;stroke-width:5.031;stroke-linecap:round;stroke-miterlimit:10;}
	.st5{fill:none;stroke:#6D6E71;stroke-width:4.8335;stroke-miterlimit:10;}
	.st6{fill:none;stroke:#134767;stroke-width:5.0633;stroke-linecap:square;stroke-miterlimit:10;}
	.st7{fill:none;stroke:#134767;stroke-width:5.2377;stroke-linecap:round;stroke-miterlimit:10;}
	.st8{fill:none;stroke:#134767;stroke-width:5.0633;stroke-miterlimit:10;}
	.st9{fill:none;stroke:#134767;stroke-width:5;stroke-miterlimit:10;}
	.st10{fill:none;stroke:#134767;stroke-width:5;stroke-linecap:round;stroke-miterlimit:10;}
	.st11{fill:none;stroke:#134767;stroke-width:5.552;stroke-linecap:square;stroke-miterlimit:10;}
	.st12{fill:none;stroke:#134767;stroke-width:5;stroke-linecap:round;stroke-linejoin:round;stroke-miterlimit:10;}
	.st13{fill:none;stroke:#134767;stroke-width:4.7815;stroke-linecap:round;stroke-linejoin:round;stroke-miterlimit:10;}
</style>
<line class="st0" x1="1350" y1="229.15" x2="1350" y2="402.84"/>
<g>
	<path class="st1" d="M-220.21,197.04c0,38.85-42.99,70.34-96.02,70.34s-96.02-31.49-96.02-70.34s42.99-101.21,96.02-101.21
		S-220.21,158.19-220.21,197.04z"/>
	<path class="st2" d="M-409.74,176.74l-11.51-7.91c-18.4-12.65-22.92-37.6-10.09-55.74l0,0c12.83-18.14,38.15-22.59,56.56-9.94
		l11.51,7.91"/>
	<path class="st2" d="M-223.4,176.74l11.51-7.91c18.4-12.65,22.92-37.6,10.09-55.74l0,0c-12.83-18.14-38.15-22.59-56.56-9.94
		l-11.51,7.91"/>
	<line class="st3" x1="-316.62" y1="271.74" x2="-316.62" y2="399.71"/>
	<line class="st4" x1="-425.57" y1="404.14" x2="-193.64" y2="404.14"/>
</g>
<g>
	<path class="st5" d="M135.27,277.06"/>
	<line class="st6" x1="242.59" y1="268.8" x2="242.59" y2="396.48"/>
	<line class="st7" x1="127.5" y1="401.04" x2="372.5" y2="401.04"/>
	<polygon class="st8" points="181.09,98.87 302.46,98.87 344.81,265.9 140.36,265.9 	"/>
</g>
<g>
	<path class="st0" d="M822.83,396.13l3.71-193.65c-50.69-82.82-50.69-82.82-50.69-82.82"/>
	<path class="st0" d="M775.01,116.06c-0.26,0.8-0.59,1.59-0.95,2.4c-1.73,3.81-4.59,7.67-8.46,11.02l-20.92-22.05
		c9.96-8.62,22.71-10.7,28.48-4.61C776.22,106.04,776.7,110.91,775.01,116.06z"/>
	<g>
		<polygon class="st9" points="773.24,143.56 729.71,209.79 662.2,135.66 733.17,99.55 743.85,111.28 762.92,132.22 		"/>
	</g>
	<path class="st0" d="M714.29,196.09c-12.41,11.64-32.02,10.57-43.81-2.4c-11.78-12.96-11.28-32.91,1.13-44.55"/>
	<line class="st10" x1="708.28" y1="401.04" x2="939.36" y2="401.04"/>
</g>
<line class="st10" x1="1240.52" y1="402.84" x2="1459.48" y2="402.84"/>
<g>
	<path class="st11" d="M1356.67,233.95c-1.54,0.12-3.1,0.21-4.67,0.21c-1.58,0-3.14-0.09-4.68-0.21H1356.67z"/>
	<path class="st11" d="M1414.03,167.94c0,24.06-12.02,45.11-30,56.7h-64.08c-17.98-11.59-30-32.65-30-56.7
		c0-36.57,27.77-66.2,62.04-66.2C1386.26,101.73,1414.03,131.37,1414.03,167.94z"/>
	<rect x="1310.46" y="224.64" class="st11" width="79.99" height="9.3"/>
</g>
<line class="st0" x1="1899.65" y1="187.06" x2="1899.65" y2="102.1"/>
<ellipse class="st0" cx="1790.61" cy="289.87" rx="6.4" ry="6.42"/>
<ellipse class="st0" cx="2010.69" cy="290.87" rx="6.4" ry="6.42"/>
<ellipse class="st0" cx="1807.87" cy="290.87" rx="6.4" ry="6.42"/>
<ellipse class="st0" cx="1993.43" cy="289.97" rx="6.4" ry="6.42"/>
<ellipse class="st0" cx="1823.94" cy="289.97" rx="6.4" ry="6.42"/>
<ellipse class="st0" cx="1976.45" cy="290.37" rx="6.4" ry="6.42"/>
<ellipse class="st0" cx="1958.19" cy="291.37" rx="6.4" ry="6.42"/>
<ellipse class="st0" cx="1841.11" cy="290.37" rx="6.4" ry="6.42"/>
<g>
	<line class="st10" x1="1779.82" y1="102.1" x2="2020.18" y2="102.1"/>
	<rect x="1859.26" y="187.06" class="st0" width="81.49" height="8.95"/>
	<g>
		<path class="st0" d="M1990.78,284.27c0-46.43-37.51-84.07-83.79-84.07s-83.79,37.64-83.79,84.07"/>
		<path class="st0" d="M2009.04,284.27c0-46.43-37.51-84.07-83.79-84.07c-46.28,0-83.79,37.64-83.79,84.07"/>
		<path class="st0" d="M1958.54,284.27c0-46.43-37.51-84.07-83.79-84.07c-46.28,0-83.79,37.64-83.79,84.07"/>
		<path class="st0" d="M1976.8,284.27c0-46.43-37.51-84.07-83.79-84.07s-83.79,37.64-83.79,84.07"/>
	</g>
	<ellipse class="st0" cx="1899.65" cy="258.62" rx="18.33" ry="18.39"/>
</g>
<line class="st0" x1="1899.65" y1="206.58" x2="1899.65" y2="235.82"/>
<g>
	<line class="st10" x1="2329.39" y1="102.9" x2="2569.74" y2="102.9"/>
	<rect x="2371.06" y="180.15" class="st12" width="14.82" height="9.84"/>
	<line class="st0" x1="2378.47" y1="176.41" x2="2378.47" y2="105.64"/>
	<path class="st12" d="M2438.19,249.25c0-32.77-26.73-59.34-59.71-59.34s-59.71,26.57-59.71,59.34H2438.19z"/>
	<path class="st12" d="M2395.67,249.4c0,9.5-7.7,17.2-17.2,17.2s-17.2-7.7-17.2-17.2"/>
	<line class="st0" x1="2521.64" y1="176.58" x2="2521.64" y2="105.81"/>
	<g>
		<rect x="2514.23" y="180.11" class="st13" width="14.82" height="9"/>
		<path class="st13" d="M2581.35,295.5c0-58.18-26.73-105.34-59.71-105.34s-59.71,47.16-59.71,105.34H2581.35z"/>
	</g>
</g>
</svg>
