<?xml version="1.0" encoding="utf-8"?>
<!-- Generator: Adobe Illustrator 26.0.0, SVG Export Plug-In . SVG Version: 6.00 Build 0)  -->
<svg version="1.1" id="Layer_1" xmlns="http://www.w3.org/2000/svg" xmlns:xlink="http://www.w3.org/1999/xlink" x="0px" y="0px"
	 viewBox="0 0 500 500" style="enable-background:new 0 0 500 500;" xml:space="preserve">
<style type="text/css">
	.st0{fill:#101111;}
	.st1{fill:#FFFFFF;}
	.st2{fill:#E9C369;}
</style>
<path class="st0" d="M485,500H15c-8.28,0-15-6.72-15-15V15C0,6.72,6.72,0,15,0h470c8.28,0,15,6.72,15,15v470
	C500,493.28,493.28,500,485,500z"/>
<g>
	<g>
		<path class="st1" d="M72.27,233.52v-1.64h7.09v-63.49h-7.09v-1.64h26.21v1.64h-9.03v63.69c2.46,0.21,5.65,0.77,9.56,1.69
			c3.91,0.92,6.75,1.39,8.49,1.39c3.49,0,6.18-0.86,8.06-2.57c1.88-1.71,2.82-3.77,2.82-6.16c0-2.4-0.6-4.14-1.8-5.24
			c-1.2-1.1-2.44-1.64-3.74-1.64c-0.58,0-0.87,0.29-0.87,0.87c0,0.58,0.23,0.91,0.68,0.98c2.46,0.69,3.69,2.26,3.69,4.73
			c0,1.44-0.52,2.71-1.55,3.8c-1.04,1.1-2.48,1.64-4.32,1.64c-1.84,0-3.32-0.68-4.42-2.05c-1.1-1.37-1.65-3.01-1.65-4.93
			c0-1.92,0.71-3.61,2.14-5.09c1.42-1.47,3.24-2.21,5.44-2.21c2.2,0,4.11,0.84,5.73,2.52c1.62,1.68,2.43,3.96,2.43,6.83
			c0,2.88-1.1,5.33-3.3,7.35c-2.2,2.02-5.18,3.03-8.93,3.03c-2.27,0-5.91-0.58-10.92-1.75c-5.02-1.17-9.92-1.75-14.71-1.75H72.27z"
			/>
		<path class="st1" d="M140.41,231.98h6.41v1.54h-21.45v-1.54h6.41v-44.17h-6.89v-1.54h2.04c5.05,0,9.54-0.44,13.49-1.34V231.98z
			 M131.72,175.02c-1.07-1.13-1.6-2.55-1.6-4.26c0-1.71,0.53-3.15,1.6-4.31c1.07-1.16,2.41-1.75,4.03-1.75
			c1.62,0,2.98,0.58,4.08,1.75c1.1,1.17,1.65,2.6,1.65,4.31c0,1.71-0.55,3.13-1.65,4.26c-1.1,1.13-2.46,1.69-4.08,1.69
			C134.13,176.71,132.79,176.15,131.72,175.02z"/>
		<path class="st1" d="M187.68,172.09c-1.49,0-2.8,0.62-3.93,1.85c-1.13,1.23-1.7,2.84-1.7,4.83c0,3.56,1.52,6.54,4.56,8.94
			c5.37,4.25,8.06,10,8.06,17.26c0,6.03-1.8,11.01-5.39,14.95c-3.59,3.94-8.17,5.91-13.73,5.91c-2.65,0-5.08-0.48-7.28-1.44
			c-2.39,0.75-4.51,1.85-6.36,3.29c-1.84,1.44-2.77,3.12-2.77,5.03c0,3.29,2.17,4.93,6.5,4.93c1.94,0,5.44-1.01,10.48-3.03
			c5.05-2.02,8.82-3.03,11.31-3.03c2.49,0,4.58,0.91,6.26,2.72c1.68,1.81,2.52,4.3,2.52,7.45c0,4.93-1.81,8.82-5.44,11.66
			c-3.62,2.84-7.7,4.26-12.23,4.26c-8.87,0-14.79-3.94-17.76-11.81c-4.21-0.96-6.31-4.04-6.31-9.25c0-3.01,1.13-5.65,3.4-7.91
			c2.26-2.26,5.08-4.01,8.44-5.24c-3.11-1.71-5.53-4.19-7.28-7.45c-1.75-3.25-2.62-6.93-2.62-11.04c0-6.03,1.8-10.99,5.39-14.9
			c3.59-3.9,8.17-5.86,13.73-5.86c2.14,0,4.43,0.41,6.89,1.23l0.19-0.21c-1.55-1.85-2.33-4.04-2.33-6.58c0-2.53,0.79-4.59,2.38-6.16
			c1.58-1.57,3.48-2.36,5.68-2.36c2.2,0,3.96,0.65,5.29,1.95c1.33,1.3,1.99,2.84,1.99,4.62c0,1.78-0.5,3.24-1.5,4.37
			c-1,1.13-2.23,1.69-3.69,1.69s-2.69-0.46-3.69-1.39c-1-0.92-1.5-2.11-1.5-3.54c0-2.19,0.84-3.49,2.52-3.9
			c0.58-0.14,0.87-0.48,0.87-1.03C188.65,172.36,188.33,172.09,187.68,172.09z M163.03,246.05h-0.1c0.91,3.08,2.75,5.51,5.53,7.29
			c2.78,1.78,5.9,2.67,9.37,2.67c3.46,0,6.62-0.86,9.46-2.57c2.85-1.71,4.27-4.18,4.27-7.4c0-1.85-0.57-3.3-1.7-4.37
			c-1.13-1.06-2.62-1.59-4.47-1.59s-5.55,0.99-11.11,2.98C168.72,245.06,164.97,246.05,163.03,246.05z M185.4,212.15
			c0.23-1.99,0.34-4.38,0.34-7.19c0-2.81-0.11-5.19-0.34-7.14c-0.23-1.95-0.66-3.92-1.31-5.91c-0.65-1.99-1.68-3.49-3.11-4.52
			c-1.42-1.03-3.24-1.54-5.44-1.54c-2.2,0-4.01,0.51-5.44,1.54c-1.42,1.03-2.46,2.53-3.11,4.52c-0.65,1.99-1.08,3.96-1.31,5.91
			c-0.23,1.95-0.34,4.33-0.34,7.14c0,2.81,0.11,5.21,0.34,7.19c0.23,1.99,0.66,3.97,1.31,5.96c0.65,1.99,1.68,3.49,3.11,4.52
			c1.42,1.03,3.23,1.54,5.44,1.54c2.2,0,4.01-0.51,5.44-1.54c1.42-1.03,2.46-2.53,3.11-4.52
			C184.73,216.13,185.17,214.14,185.4,212.15z"/>
		<path class="st1" d="M225.05,231.98v1.54H203.6v-1.54H210v-67.8h-6.89v-1.54h2.04c5.11,0,9.67-0.44,13.69-1.34v33.9h0.58
			c1.1-3.29,2.96-5.94,5.58-7.96c2.62-2.02,5.55-3.03,8.78-3.03c5.63,0,9.48,1.76,11.55,5.29c2.07,3.53,3.11,8.78,3.11,15.77v26.71
			h6.41v1.54H233.4v-1.54h6.41v-25.27c0-7.74-0.55-12.84-1.65-15.31c-0.52-1.1-1.31-2.09-2.38-2.98c-1.07-0.89-2.64-1.34-4.71-1.34
			c-2.07,0-4.03,0.79-5.87,2.36c-1.84,1.58-3.22,3.73-4.12,6.47c-1.62,4.86-2.43,10.68-2.43,17.46v18.59H225.05z"/>
		<path class="st1" d="M275.72,187.81v34.93c0,5.75,0.35,8.94,1.07,9.55c0.39,0.34,0.91,0.51,1.55,0.51c1.62,0,3.19-0.99,4.71-2.98
			c1.52-1.99,2.77-4.14,3.74-6.47l1.55,0.62c-1.23,3.29-2.88,6.04-4.95,8.27c-2.07,2.22-4.47,3.34-7.18,3.34
			c-3.82,0-6.29-1.22-7.43-3.65c-1.13-2.43-1.7-6.25-1.7-11.45v-32.67h-6.89v-1.54h0.68c7.44,0,11.97-4.52,13.59-13.56h1.26v13.56
			h11.74v1.54H275.72z"/>
		<path class="st1" d="M307.84,231.98h6.41v1.54H292.8v-1.54h6.41v-44.17h-6.89v-1.54h2.04c5.05,0,9.54-0.44,13.49-1.34V231.98z
			 M299.16,175.02c-1.07-1.13-1.6-2.55-1.6-4.26c0-1.71,0.53-3.15,1.6-4.31c1.07-1.16,2.41-1.75,4.03-1.75
			c1.62,0,2.98,0.58,4.08,1.75c1.1,1.17,1.65,2.6,1.65,4.31c0,1.71-0.55,3.13-1.65,4.26c-1.1,1.13-2.46,1.69-4.08,1.69
			C301.57,176.71,300.22,176.15,299.16,175.02z"/>
		<path class="st1" d="M342.79,231.98v1.54h-21.45v-1.54h6.41v-44.17h-6.89v-1.54h2.04c5.11,0,9.67-0.44,13.69-1.34v10.27h0.58
			c1.1-3.29,2.96-5.94,5.58-7.96c2.62-2.02,5.55-3.03,8.78-3.03c5.63,0,9.48,1.76,11.55,5.29c2.07,3.53,3.11,8.78,3.11,15.77v26.71
			h6.41v1.54h-21.45v-1.54h6.41v-25.27c0-7.74-0.55-12.84-1.65-15.31c-0.52-1.1-1.31-2.09-2.38-2.98c-1.07-0.89-2.64-1.34-4.71-1.34
			c-2.07,0-4.03,0.79-5.87,2.36c-1.84,1.58-3.22,3.73-4.12,6.47c-1.62,4.86-2.43,10.68-2.43,17.46v18.59H342.79z"/>
		<path class="st1" d="M412.19,172.09c-1.49,0-2.8,0.62-3.93,1.85c-1.13,1.23-1.7,2.84-1.7,4.83c0,3.56,1.52,6.54,4.56,8.94
			c5.37,4.25,8.06,10,8.06,17.26c0,6.03-1.8,11.01-5.39,14.95c-3.59,3.94-8.17,5.91-13.73,5.91c-2.65,0-5.08-0.48-7.28-1.44
			c-2.39,0.75-4.51,1.85-6.36,3.29c-1.84,1.44-2.77,3.12-2.77,5.03c0,3.29,2.17,4.93,6.5,4.93c1.94,0,5.44-1.01,10.48-3.03
			c5.05-2.02,8.82-3.03,11.31-3.03c2.49,0,4.58,0.91,6.26,2.72c1.68,1.81,2.52,4.3,2.52,7.45c0,4.93-1.81,8.82-5.44,11.66
			c-3.62,2.84-7.7,4.26-12.23,4.26c-8.87,0-14.79-3.94-17.76-11.81c-4.21-0.96-6.31-4.04-6.31-9.25c0-3.01,1.13-5.65,3.4-7.91
			c2.26-2.26,5.08-4.01,8.44-5.24c-3.11-1.71-5.53-4.19-7.28-7.45c-1.75-3.25-2.62-6.93-2.62-11.04c0-6.03,1.8-10.99,5.39-14.9
			c3.59-3.9,8.17-5.86,13.73-5.86c2.14,0,4.43,0.41,6.89,1.23l0.19-0.21c-1.55-1.85-2.33-4.04-2.33-6.58c0-2.53,0.79-4.59,2.38-6.16
			c1.58-1.57,3.48-2.36,5.68-2.36c2.2,0,3.96,0.65,5.29,1.95c1.33,1.3,1.99,2.84,1.99,4.62c0,1.78-0.5,3.24-1.5,4.37
			c-1,1.13-2.23,1.69-3.69,1.69s-2.69-0.46-3.69-1.39c-1-0.92-1.5-2.11-1.5-3.54c0-2.19,0.84-3.49,2.52-3.9
			c0.58-0.14,0.87-0.48,0.87-1.03C413.16,172.36,412.83,172.09,412.19,172.09z M387.53,246.05h-0.1c0.91,3.08,2.75,5.51,5.53,7.29
			c2.78,1.78,5.9,2.67,9.37,2.67c3.46,0,6.62-0.86,9.46-2.57c2.85-1.71,4.27-4.18,4.27-7.4c0-1.85-0.57-3.3-1.7-4.37
			c-1.13-1.06-2.62-1.59-4.46-1.59c-1.84,0-5.55,0.99-11.11,2.98C393.23,245.06,389.47,246.05,387.53,246.05z M409.91,212.15
			c0.23-1.99,0.34-4.38,0.34-7.19c0-2.81-0.11-5.19-0.34-7.14c-0.23-1.95-0.66-3.92-1.31-5.91c-0.65-1.99-1.68-3.49-3.11-4.52
			c-1.42-1.03-3.24-1.54-5.44-1.54c-2.2,0-4.01,0.51-5.44,1.54c-1.42,1.03-2.46,2.53-3.11,4.52c-0.65,1.99-1.08,3.96-1.31,5.91
			c-0.23,1.95-0.34,4.33-0.34,7.14c0,2.81,0.11,5.21,0.34,7.19c0.23,1.99,0.66,3.97,1.31,5.96c0.65,1.99,1.68,3.49,3.11,4.52
			c1.42,1.03,3.23,1.54,5.44,1.54c2.2,0,4.01-0.51,5.44-1.54c1.42-1.03,2.46-2.53,3.11-4.52
			C409.24,216.13,409.68,214.14,409.91,212.15z"/>
	</g>
	<g>
		<path id="lamp" class="st2" d="M107.43,325.85l5.87-6.04l4.5,4.64l-5.86,6.04L107.43,325.85z M131.35,338.7v-9.75h6.47v9.75
			H131.35z M108.94,299.22v6.66h-9.63v-6.66H108.94z M144.29,285.44c2.88,1.73,5.29,4.18,7,7.12c1.75,2.99,2.67,6.42,2.63,9.91
			c0.08,5.27-1.96,10.34-5.64,14.01c-3.56,3.79-8.49,5.89-13.61,5.81c-5.12,0.08-10.05-2.02-13.61-5.81
			c-3.68-3.67-5.72-8.74-5.65-14.01c-0.07-7.06,3.63-13.6,9.63-17.03V269.5h19.26V285.44z M160.24,299.22h9.63v6.66h-9.63V299.22z
			 M151.36,324.45l4.51-4.5l5.87,5.88l-4.51,4.64L151.36,324.45z"/>
		<g>
			<path class="st1" d="M213.2,307.36l-4.15,0.18c-11.54,0.59-19.25,2.27-23.13,5.03c-3.65,2.65-5.47,6.59-5.47,11.83
				c0,3.47,0.65,6.22,1.94,8.26c1.29,2.03,3.12,3.05,5.47,3.05c2.18,0,3.27-1.68,3.27-5.03v-49.71h-6.45v-1.41h22.95v1.41h-7.33
				v46.7c0,3.65-0.9,6.4-2.69,8.25c-1.8,1.85-4.3,2.78-7.5,2.78c-3.21,0-5.92-1.19-8.12-3.58c-2.21-2.38-3.31-5.78-3.31-10.2
				c0-5.3,1.47-9.3,4.41-12.01c3.06-2.71,6.71-4.47,10.95-5.3c5-1,11.54-1.62,19.6-1.85c6.36-0.18,10.34-0.46,11.96-0.84
				c1.62-0.38,3.19-0.78,4.72-1.19c1.53-0.41,2.65-0.88,3.35-1.41c0.71-0.53,1.55-1.21,2.52-2.03c0.97-0.82,1.69-1.74,2.16-2.74
				c1.06-2.47,1.59-5.03,1.59-7.68s-0.3-4.68-0.88-6.09c-0.59-1.41-1.38-2.12-2.38-2.12c-1.94,0-2.91,1.56-2.91,4.68v49.18h7.33
				v1.41h-22.95v-1.41h6.44v-47.59c0-3.41,0.78-5.94,2.34-7.59c1.56-1.65,3.63-2.47,6.22-2.47c2.59,0,4.66,1.01,6.22,3.05
				c1.56,2.03,2.34,4.8,2.34,8.3c0,3.5-0.57,6.37-1.72,8.61c-1.15,2.24-2.44,3.93-3.88,5.08c-1.44,1.15-3.66,2.06-6.67,2.74
				c-3,0.68-5.47,1.09-7.42,1.24C220.08,307.02,217.14,307.18,213.2,307.36z"/>
			<path class="st1" d="M283.21,332.52c-3.41,4.12-8.18,6.18-14.3,6.18c-6.12,0-10.89-2.06-14.3-6.18
				c-3.41-4.12-5.12-9.42-5.12-15.89c0-6.47,1.71-11.77,5.12-15.89c3.41-4.12,8.18-6.18,14.3-6.18c6.12,0,10.89,2.06,14.3,6.18
				c3.41,4.12,5.12,9.42,5.12,15.89C288.33,323.1,286.62,328.4,283.21,332.52z M279.59,322.54c0.12-1.71,0.18-3.68,0.18-5.92
				c0-2.24-0.06-4.21-0.18-5.91c-0.12-1.71-0.4-3.53-0.84-5.47c-0.44-1.94-1.03-3.55-1.77-4.81c-0.74-1.26-1.8-2.31-3.18-3.13
				c-1.38-0.82-3.02-1.24-4.9-1.24c-1.88,0-3.52,0.41-4.9,1.24c-1.38,0.82-2.44,1.87-3.18,3.13c-0.74,1.27-1.32,2.87-1.77,4.81
				c-0.44,1.94-0.72,3.77-0.84,5.47c-0.12,1.71-0.18,3.68-0.18,5.91c0,2.24,0.06,4.21,0.18,5.92c0.12,1.71,0.4,3.53,0.84,5.47
				c0.44,1.94,1.03,3.55,1.77,4.81c0.74,1.27,1.79,2.31,3.18,3.13c1.38,0.82,3.02,1.24,4.9,1.24c1.88,0,3.52-0.41,4.9-1.24
				c1.38-0.82,2.44-1.87,3.18-3.13c0.74-1.26,1.32-2.87,1.77-4.81C279.19,326.07,279.47,324.25,279.59,322.54z"/>
			<path class="st1" d="M328.85,297.64h-6.27v-1.32h1.85c4.59,0,8.68-0.38,12.27-1.15v40.44h5.83v1.32h-13.86v-7.68h-0.53
				c-1,2.83-2.69,5.11-5.08,6.84c-2.38,1.74-5.05,2.6-7.99,2.6c-5,0-8.37-1.5-10.11-4.5c-1.74-3-2.6-7.53-2.6-13.6v-22.95h-6.27
				v-1.32h1.85c4.59,0,8.68-0.38,12.27-1.15v24.19c0,5.53,0.21,9.01,0.62,10.42c0.41,1.41,0.85,2.62,1.32,3.62
				c0.94,1.88,2.54,2.83,4.81,2.83c2.27,0,4.24-0.68,5.91-2.03c1.68-1.35,2.93-3.21,3.75-5.56c1.47-4.18,2.21-9.18,2.21-15.01
				V297.64z"/>
			<path class="st1" d="M367.96,294.55c8.95,0,13.42,3.03,13.42,9.09c0,1.77-0.57,3.25-1.72,4.46c-1.15,1.21-2.5,1.81-4.06,1.81
				c-1.56,0-2.83-0.46-3.8-1.37c-0.97-0.91-1.46-2.03-1.46-3.35s0.38-2.44,1.15-3.35c0.76-0.91,1.79-1.37,3.09-1.37
				c2,0,3.18,0.77,3.53,2.3c0.06,0.53,0.34,0.79,0.84,0.79c0.5,0,0.75-0.27,0.75-0.79c0-1.65-0.81-3.13-2.43-4.46
				c-1.62-1.32-4.09-1.99-7.42-1.99c-3.33,0-6.06,0.62-8.21,1.85c-2.15,1.24-3.22,2.96-3.22,5.16c0,2.21,0.85,3.99,2.56,5.34
				c1.71,1.35,3.77,2.47,6.18,3.35c2.41,0.88,4.84,1.81,7.28,2.78c2.44,0.97,4.52,2.37,6.22,4.19c1.71,1.82,2.56,4.03,2.56,6.62
				c0,4.41-1.58,7.7-4.72,9.84c-3.15,2.15-7.05,3.22-11.7,3.22c-4.65,0-8.39-0.82-11.21-2.47c-2.83-1.65-4.24-4.15-4.24-7.5
				c0-1.77,0.57-3.25,1.72-4.46c1.15-1.21,2.5-1.81,4.06-1.81c1.56,0,2.83,0.46,3.8,1.37c0.97,0.91,1.46,2.03,1.46,3.35
				s-0.38,2.44-1.15,3.35c-0.77,0.91-1.8,1.37-3.09,1.37c-2,0-3.18-0.76-3.53-2.3c-0.06-0.53-0.34-0.79-0.84-0.79
				c-0.5,0-0.75,0.26-0.75,0.79c0,1.77,0.98,3.43,2.96,4.99c1.97,1.56,4.9,2.34,8.78,2.34c8.53,0,12.8-2.77,12.8-8.3
				c0-3.41-2.91-6.18-8.74-8.3c-2.47-0.88-4.92-1.81-7.33-2.78c-2.41-0.97-4.47-2.37-6.18-4.19c-1.71-1.82-2.56-4.03-2.56-6.62
				c0-3.77,1.49-6.74,4.46-8.92C360.2,295.64,363.78,294.55,367.96,294.55z"/>
			<path class="st1" d="M412.19,294.55c4.41,0,8.11,0.94,11.08,2.83c2.97,1.88,4.46,4.71,4.46,8.48c0,5.83-3.33,9.42-9.98,10.77
				c-3.35,0.65-7.53,0.97-12.54,0.97h-4.15v2.56c0,4.77,0.99,8.64,2.96,11.61c1.97,2.97,4.86,4.46,8.65,4.46
				c3.8,0,6.77-1.12,8.92-3.35c2.15-2.24,3.66-5.12,4.55-8.65l1.59,0.18c-0.94,4.3-2.84,7.76-5.69,10.37
				c-2.86,2.62-6.46,3.93-10.82,3.93c-6.12,0-10.77-2.02-13.95-6.05c-3.18-4.03-4.77-9.37-4.77-16.02c0-6.65,1.71-11.99,5.12-16.02
				C401.04,296.57,405.89,294.55,412.19,294.55z M401.07,316.01h3.09c4.77,0,8.11-0.47,10.02-1.41c1.91-0.94,3.22-2.1,3.93-3.49
				c0.71-1.38,1.06-3.34,1.06-5.87c0-2.53-0.63-4.69-1.9-6.49c-1.27-1.79-3.19-2.69-5.78-2.69c-2.59,0-4.69,0.93-6.31,2.78
				c-1.62,1.85-2.71,4.02-3.27,6.49c-0.56,2.47-0.84,5.21-0.84,8.21V316.01z"/>
		</g>
	</g>
</g>
</svg>
