<?xml version="1.0" encoding="utf-8"?>
<!-- Generator: Adobe Illustrator 26.0.0, SVG Export Plug-In . SVG Version: 6.00 Build 0)  -->
<svg version="1.1" xmlns="http://www.w3.org/2000/svg" xmlns:xlink="http://www.w3.org/1999/xlink" x="0px" y="0px"
	 viewBox="0 0 126.33 54.37" style="enable-background:new 0 0 126.33 54.37;" xml:space="preserve">
<style type="text/css">
	.st0{fill:#0F1010;}
	.st1{fill:#FFFFFF;}
	.st2{font-family:'ElsieSwashCaps-Regular';}
	.st3{font-size:17.7557px;}
	.st4{fill:#E9C46A;}
	.st5{font-size:24px;}
</style>
<g id="Layer_1">
	<rect class="st0" width="126.33" height="54.55"/>
	<rect x="175.05" y="95.54" class="st0" width="251.87" height="100.81"/>
</g>
<g id="Layer_2">
	<g>
		<text transform="matrix(1.1253 0 0 1 49.4412 43.8819)" class="st1 st2 st3">House</text>
		<path id="lamp" class="st4" d="M28.32,46.39l1.74-1.74l1.34,1.34l-1.74,1.74L28.32,46.39z M35.43,50.1v-2.82h1.92v2.82H35.43z
			 M28.77,38.69v1.92H25.9v-1.92H28.77z M39.28,34.71c0.86,0.5,1.57,1.21,2.08,2.06c0.52,0.86,0.79,1.85,0.78,2.86
			c0.02,1.52-0.58,2.99-1.68,4.05c-1.06,1.09-2.53,1.7-4.05,1.68c-1.52,0.02-2.99-0.58-4.05-1.68c-1.09-1.06-1.7-2.52-1.68-4.05
			c-0.02-2.04,1.08-3.93,2.86-4.92V30.1h5.73V34.71z M44.02,38.69h2.86v1.92h-2.86V38.69z M41.38,45.99l1.34-1.3l1.74,1.7
			l-1.34,1.34L41.38,45.99z"/>
		<text transform="matrix(1 0 0 1 19.0294 24.0635)" class="st1 st2 st5">Lighting</text>
	</g>
</g>
</svg>
